<?xml version="1.0" encoding="utf-8"?>
<!-- Generator: Adobe Illustrator 17.0.0, SVG Export Plug-In . SVG Version: 6.00 Build 0)  -->
<!DOCTYPE svg PUBLIC "-//W3C//DTD SVG 1.1//EN" "http://www.w3.org/Graphics/SVG/1.1/DTD/svg11.dtd">
<svg version="1.1" id="Layer_1" xmlns="http://www.w3.org/2000/svg" xmlns:xlink="http://www.w3.org/1999/xlink" x="0px" y="0px"
	 width="100px" height="100px" viewBox="0 0 100 100" enable-background="new 0 0 100 100" xml:space="preserve">
<g transform="translate(0.000000,100.000000) scale(0.100000,-0.100000)">
	<path fill="#48BEBC" d="M401,969C232,936,81,789,35,615C-54,272,272-54,615,35c256,67,415,329,350,580C900,864,654,1019,401,969z
		 M603,925c177-46,299-179,330-360C977,308,764,60,500,60C233,60,23,308,68,570C112,825,359,989,603,925z"/>
	<path fill="#48BEBC" d="M225,470c-18-30,50-165,113-222c155-138,357-56,432,175c7,23,8,43,3,48s-40-3-83-18c-65-24-90-27-190-27
		c-112,0-136,5-251,49C239,478,229,476,225,470z M365,394c102-24,255-14,348,22c17,6,16,1-7-43c-51-102-120-153-206-153
		s-155,51-206,153c-23,44-24,49-7,43C297,412,332,402,365,394z"/>
</g>
<path fill="none" stroke="#48BEBE" stroke-width="3" stroke-miterlimit="10" d="M28.122,31.184c0,0,8.179-12.268,15.903,0"/>
<path fill="none" stroke="#48BEBE" stroke-width="3" stroke-miterlimit="10" d="M57.605,31.184c0,0,8.179-12.268,15.903,0"/>
</svg>
