<?xml version="1.0" encoding="utf-8"?>
<!-- Generator: Adobe Illustrator 17.0.0, SVG Export Plug-In . SVG Version: 6.00 Build 0)  -->
<!DOCTYPE svg PUBLIC "-//W3C//DTD SVG 1.1//EN" "http://www.w3.org/Graphics/SVG/1.1/DTD/svg11.dtd">
<svg version="1.1" id="Layer_1" xmlns="http://www.w3.org/2000/svg" xmlns:xlink="http://www.w3.org/1999/xlink" x="0px" y="0px"
	 width="100px" height="100px" viewBox="0 0 100 100" enable-background="new 0 0 100 100" xml:space="preserve">
<g transform="translate(0.000000,100.000000) scale(0.100000,-0.100000)">
	<path fill="#48BEBC" d="M395,988c-86-16-174-65-246-137c-199-199-199-503,0-702C287,11,473-35,651,25c360,122,466,560,200,826
		C728,974,569,1021,395,988z M609,945c229-54,382-286,343-517c-13-76-56-173-97-221l-25-28l-62,29c-35,17-72,33-84,36
		c-11,3-30,15-42,27c-38,35-27,91,45,223c12,22,13,37,6,55c-5,14-6,37-2,51c15,53,10,144-10,176c-27,45-127,94-189,94
		c-132-1-208-97-186-236c6-36,6-69,0-85c-6-18-4-34,7-55c58-109,68-135,65-175c-3-46-7-48-141-109l-67-31l-25,28
		C68,296,27,449,48,573C93,839,346,1007,609,945z M579,805c28-14,57-36,66-48c17-24,19-91,5-151c-5-23-5-47,0-56c12-22,1-60-16-60
		c-8,0-14-10-14-22c0-13-9-38-20-56c-13-22-20-50-20-85c0-66,24-92,120-132c92-38,100-47,57-74C607,28,451,16,307,85
		c-29,14-63,34-77,44l-24,19l97,47c53,25,101,55,107,65c6,11,13,39,16,63c5,36,2,49-20,81c-14,21-26,49-26,62c0,14-6,24-14,24
		c-18,0-28,38-16,61c6,11,6,38-1,74c-17,91,9,166,64,190C463,837,522,833,579,805z"/>
</g>
</svg>
