<?xml version="1.0" encoding="utf-8"?>
<!-- Generator: Adobe Illustrator 17.0.0, SVG Export Plug-In . SVG Version: 6.00 Build 0)  -->
<!DOCTYPE svg PUBLIC "-//W3C//DTD SVG 1.1//EN" "http://www.w3.org/Graphics/SVG/1.1/DTD/svg11.dtd">
<svg version="1.1" id="Layer_1" xmlns="http://www.w3.org/2000/svg" xmlns:xlink="http://www.w3.org/1999/xlink" x="0px" y="0px"
	 width="100px" height="55.8px" viewBox="0 44.2 100 55.8" enable-background="new 0 44.2 100 55.8" xml:space="preserve">
<g transform="translate(0.000000,100.000000) scale(0.100000,-0.100000)">
	<path fill="#48BEBC" d="M248,550c-10-6-30-32-44-58c-45-78-62-92-111-92c-33,0-50-6-68-25C1,352,0,344,0,242c0-123,9-142,69-142
		c23,0,34-6,40-22c18-46,59-73,111-73s93,27,111,73c8,22,12,22,169,22s161,0,169-23c18-45,59-72,111-72s93,27,111,72
		c6,17,17,23,39,23c53,0,70,29,70,119c0,75-2,81-27,101c-35,28-80,46-157,66c-56,14-67,21-132,92l-72,77l-173,3
		C331,559,258,556,248,550z M420,460v-60H310c-60,0-110,2-110,5s16,30,35,60l35,55h75h75V460z M600,507c9-7,35-33,59-59l44-48H581
		H460v60v60h63C557,520,592,514,600,507z M847,335c112-36,115-39,111-121c-3-67-4-69-30-72c-22-3-30,2-37,20c-18,46-59,73-111,73
		s-93-27-111-72c-8-23-12-23-169-23s-161,0-169,23c-18,45-59,72-111,72s-93-27-111-72c-6-17-17-23-39-23H40v98c0,63,4,102,12,110
		c9,9,104,12,364,12C766,360,770,360,847,335z M275,175c33-32,33-78,0-110c-32-33-78-33-110,0c-16,15-25,36-25,55s9,40,25,55
		c15,16,36,25,55,25S260,191,275,175z M835,175c50-49,15-135-55-135c-41,0-80,39-80,80s39,80,80,80C799,200,820,191,835,175z"/>
</g>
</svg>
