<?xml version="1.0" encoding="utf-8"?>
<!-- Generator: Adobe Illustrator 17.0.0, SVG Export Plug-In . SVG Version: 6.00 Build 0)  -->
<!DOCTYPE svg PUBLIC "-//W3C//DTD SVG 1.1//EN" "http://www.w3.org/Graphics/SVG/1.1/DTD/svg11.dtd">
<svg version="1.1" id="Layer_1" xmlns="http://www.w3.org/2000/svg" xmlns:xlink="http://www.w3.org/1999/xlink" x="0px" y="0px"
	 width="100px" height="100px" viewBox="0 0 100 100" enable-background="new 0 0 100 100" xml:space="preserve">
<g transform="translate(0.000000,100.000000) scale(0.100000,-0.100000)">
	<path fill="#FFFFFF" d="M410,847c-109-32-189-97-237-195c-25-50-28-68-28-152s3-102,28-152c36-74,102-139,175-174
		c49-24,70-28,147-29c77,0,98,4,147,27c79,37,142,98,181,177c28,58,32,75,32,151s-4,93-32,151c-60,121-170,196-300,205
		C483,858,436,855,410,847z M632,788c199-91,246-355,93-512c-62-62-135-91-230-91c-67,0-89,4-137,28c-217,106-240,412-41,548
		C410,825,528,835,632,788z"/>
	<path fill="#FFFFFF" d="M480,675c0-16-6-25-15-25c-26,0-65-47-65-78c0-34,33-68,93-97c88-42,37-111-56-76c-20,8-27,6-31-5
		c-11-28-7-33,34-44c33-9,40-15,40-36c0-34,34-29,38,6c2,15,16,33,35,45c72,46,58,119-30,160c-59,28-72,47-52,71c10,12,24,15,60,10
		c41-6,47-4,52,13c6,25,0,31-35,31c-23,0-28,4-28,25c0,18-5,25-20,25S480,693,480,675z"/>
</g>
</svg>
