<?xml version="1.0" encoding="utf-8"?>
<!-- Generator: Adobe Illustrator 17.0.0, SVG Export Plug-In . SVG Version: 6.00 Build 0)  -->
<!DOCTYPE svg PUBLIC "-//W3C//DTD SVG 1.1//EN" "http://www.w3.org/Graphics/SVG/1.1/DTD/svg11.dtd">
<svg version="1.1" id="Layer_1" xmlns="http://www.w3.org/2000/svg" xmlns:xlink="http://www.w3.org/1999/xlink" x="0px" y="0px"
	 width="100px" height="100px" viewBox="0 0 100 100" enable-background="new 0 0 100 100" xml:space="preserve">
<g transform="translate(0.000000,100.000000) scale(0.100000,-0.100000)">
	<path fill="#48BEBC" d="M487,994c-4-4-7-22-7-40c0-28-5-34-34-44c-19-6-46-20-61-32c-33-25-88-139-75-152c6-6,10-47,10-92
		c0-77,1-82,20-77c18,5,20,14,20,84c0,72,2,79,20,79s20-7,20-69c0-64,1-69,20-64c17,5,20,14,20,69c0,57,2,64,20,64c17,0,20-7,20-53
		s3-53,20-53s20,7,20,53s3,53,20,53c18,0,20-7,20-64c0-55,3-64,20-69c19-5,20,0,20,64c0,62,2,69,20,69s20-7,20-79c0-70,2-79,20-84
		c19-5,20,0,20,79c0,49,4,84,10,84s10,9,10,20s-4,20-9,20c-4,0-16,20-25,45c-20,50-59,88-110,105c-30,10-35,16-38,47
		C515,992,501,1008,487,994z M561,865c30-16,69-68,69-92c0-10-33-13-130-13c-145,0-150,3-109,62C430,876,504,894,561,865z"/>
	<path fill="#48BEBC" d="M292,503l-192-76v-49c0-41,3-51,20-55c18-5,20-15,22-162l3-156h130h130l5,88c4,78,8,91,29,108
		c35,29,96,25,126-7c21-22,25-38,27-108l3-81h130h130l3,156c2,147,4,157,22,162c17,4,20,14,20,55v49l-198,77c-109,42-203,76-208,75
		S398,544,292,503z M690,466c135-52,166-67,168-85l3-21H500H139l3,21c2,18,34,33,178,89c96,38,182,67,190,64
		C518,532,599,501,690,466z M820,180V40h-94h-94l-4,76c-3,73-5,77-41,110c-31,28-44,34-83,34c-91,0-134-49-134-154V40h-95h-95v140
		v140h320h320V180z"/>
</g>
</svg>
