<?xml version="1.0" encoding="utf-8"?>
<!-- Generator: Adobe Illustrator 17.0.0, SVG Export Plug-In . SVG Version: 6.00 Build 0)  -->
<!DOCTYPE svg PUBLIC "-//W3C//DTD SVG 1.1//EN" "http://www.w3.org/Graphics/SVG/1.1/DTD/svg11.dtd">
<svg version="1.1" id="Layer_1" xmlns="http://www.w3.org/2000/svg" xmlns:xlink="http://www.w3.org/1999/xlink" x="0px" y="0px"
	 width="100px" height="100px" viewBox="0 0 100 100" enable-background="new 0 0 100 100" xml:space="preserve">
<g>
	<polygon fill="none" points="58.014,32.75 45.427,33.163 43.01,40.9 65.148,40.9 	"/>
	<path fill="none" d="M13.8,56l0.6,2.2c0.3,1.3,0.6,2.6,0.6,3c0,0.5,11.6,0.8,25.9,0.8h25.9l1.6-2.5c0.9-1.3,1.6-2.7,1.6-3
		S57.3,56,41.9,56H13.8z"/>
	<path fill="none" d="M74,51.2c0-0.5-1-1.8-2.3-3c-2.3-2.1-3-2.2-29.3-2.2h-27l-1.7,3l-1.8,3h31C60,52,74,51.6,74,51.2z"/>
	<path fill="none" d="M15.3,85c1.2,0,4.1,0.8,6.5,1.7c3.8,1.4,5.1,1.5,9.6,0.4c6.6-1.6,9.1-1.6,14.3,0c3.6,1.1,5,1.1,8.5,0
		c3.9-1.2,6.1-1.4,12.2-1.1c3.9,0.2,14.4-6,19.4-11.4c5.2-5.7,9.3-13.2,9.5-17.5c0.2-2.6,0.2-2.6-9-2.9l-9.2-0.3L73,60l-4.1,6
		l-28.2-0.2l-28.2-0.3l-2-5.8c-1.8-5.3-3.8-7.1-5.8-5c-1.1,1-0.8,14.4,0.4,18.6C6.4,78,12.5,85,15.3,85z"/>
	<path fill="#48BEBC" d="M9,87.5C9,87.8,6.9,88,4.4,88c-3.8,0-4.5,0.3-4.2,1.7c0.4,2.5,7,2.9,12.3,0.9c3.7-1.5,4.6-1.5,8.5-0.1
		c5.4,1.9,9,1.9,13.8,0c3.4-1.4,4.2-1.4,8.1,0c5.4,1.9,8.7,1.9,14,0c3.6-1.2,4.6-1.2,8.2,0c5.3,1.9,8.6,1.9,14,0
		c3.9-1.4,4.7-1.4,8.1,0c6.7,2.6,13.8,1.6,12.5-1.9c-0.5-1.1-1.4-1.4-3.6-1c-1.7,0.4-5.3-0.1-8.4-1.1c-4.2-1.3-5.9-1.4-7.5-0.6
		c-4.1,2.2-3.4,1,1.1-2c9.1-6,16.8-17.2,18.3-26.6c0.9-5.9-1.5-7.3-12.6-7.3h-8.5l-8.8-10.1l-8.9-10l-9.1,0.3l-9.2,0.3l-2,5.7
		c-1.9,5.6-2.1,5.8-5.6,5.8c-3.3,0-4.3-0.7-8.9-6c-5-5.8-5.3-6-10.1-6c-3.2,0-5.1,0.5-5.5,1.3c-0.3,0.8,0.4,3.4,1.5,5.9l1.9,4.5
		l-2.7,4.1C9.3,48.7,7.8,50,6.2,50C1.6,50,0,53.2,0,62.2c0,10.4,1.2,14.5,5.5,20.3C7.4,85,9,87.2,9,87.5z M45.427,33.163
		l12.586-0.413l7.134,8.15H43.01L45.427,33.163z M20.906,34.863l5.11,6.221h-9.331L13.8,34.863
		C13.8,34.863,16.018,30.864,20.906,34.863z M13.7,49l1.7-3h27c26.3,0,27,0.1,29.3,2.2c1.3,1.2,2.3,2.5,2.3,3c0,0.4-14,0.8-31.1,0.8
		h-31L13.7,49z M70,56.5c0,0.3-0.7,1.7-1.6,3L66.8,62H40.9C26.6,62,15,61.7,15,61.2c0-0.4-0.3-1.7-0.6-3L13.8,56h28.1
		C57.3,56,70,56.2,70,56.5z M4.7,54.7c2-2.1,4-0.3,5.8,5l2,5.8l28.2,0.3L68.9,66l4.1-6l4.1-6.1l9.2,0.3c9.2,0.3,9.2,0.3,9,2.9
		c-0.2,4.3-4.3,11.8-9.5,17.5C80.8,80,70.3,86.2,66.4,86c-6.1-0.3-8.3-0.1-12.2,1.1c-3.5,1.1-4.9,1.1-8.5,0c-5.2-1.6-7.7-1.6-14.3,0
		c-4.5,1.1-5.8,1-9.6-0.4c-2.4-0.9-5.3-1.7-6.5-1.7c-2.8,0-8.9-7-10.2-11.7C3.9,69.1,3.6,55.7,4.7,54.7z"/>
	<path fill="#48BEBC" d="M96.1,95.6c-1.8,0.4-5.2-0.1-8.2-1c-4.8-1.6-5.4-1.6-9.6,0c-3.9,1.5-5.2,1.6-9.7,0.5
		c-6.6-1.6-9.1-1.6-14.4,0c-3.5,1.1-4.9,1.1-8.5,0c-5.2-1.6-7.7-1.6-14.3,0c-4.5,1.1-5.8,1-9.6-0.4c-5-1.9-5.1-1.9-9.8-0.1
		c-1.9,0.7-5.4,1.3-7.8,1.3c-3.6,0.1-4.3,0.4-4,1.8c0.4,2.5,7,2.9,12.3,0.9c3.7-1.5,4.6-1.5,8.5-0.1c5.4,1.9,9,1.9,13.8,0
		c3.4-1.4,4.2-1.4,8.1,0c5.4,1.9,8.7,1.9,14,0c3.6-1.2,4.6-1.2,8.2,0c5.3,1.9,8.6,1.9,14,0c3.9-1.4,4.7-1.4,8.1,0
		c6.7,2.6,13.8,1.6,12.5-1.9C99.2,95.5,98.3,95.2,96.1,95.6z"/>
</g>
</svg>
