<?xml version="1.0" encoding="utf-8"?>
<!-- Generator: Adobe Illustrator 17.0.0, SVG Export Plug-In . SVG Version: 6.00 Build 0)  -->
<!DOCTYPE svg PUBLIC "-//W3C//DTD SVG 1.1//EN" "http://www.w3.org/Graphics/SVG/1.1/DTD/svg11.dtd">
<svg version="1.1" id="Layer_1" xmlns="http://www.w3.org/2000/svg" xmlns:xlink="http://www.w3.org/1999/xlink" x="0px" y="0px"
	 width="100px" height="100px" viewBox="0 0 100 100" enable-background="new 0 0 100 100" xml:space="preserve">
<g transform="translate(0.000000,100.000000) scale(0.100000,-0.100000)">
	<path fill="#48BEBC" d="M340,994C188,965,25,863,6,784c-9-35,46-171,105-259c58-86,130-155,198-187l48-23l5-80c5-89,32-162,75-207
		c23-24,35-28,79-28c66,0,160,29,222,69c98,62,262,260,262,315c0,43-59,126-123,173c-73,54-167,101-218,109c-37,6-37,6-44,68
		c-4,33-17,97-29,141c-18,69-25,81-54,98C498,993,394,1004,340,994z M482,950c21-6,42-19,47-28c11-22,37-133,46-194c6-44,5-48-15-48
		c-44,0-85-27-104-67c-15-34-24-42-55-47c-71-11-152-89-122-119c9-9,17-5,37,21c24,30,71,62,92,62c5,0-2-30-14-67
		c-13-38-24-76-24-85c-1-60-160,64-236,183c-26,42-94,192-94,208c0,5,18,28,39,53C163,917,367,982,482,950z M746,590
		c96-47,173-113,199-169l18-40l-44-68c-64-98-165-195-245-234c-55-27-78-33-137-33l-71-1l-29,56c-40,78-47,184-19,294
		c26,106,80,225,106,236C567,649,661,632,746,590z"/>
	<path fill="#48BEBC" d="M470,354c-16-40-11-115,9-161c41-88,131-96,239-20c61,44,56,58-34,85c-62,19-87,33-129,73
		c-28,27-57,49-64,49C485,380,475,368,470,354z"/>
</g>
<path fill="#48BEBC" stroke="#48BEBC" stroke-miterlimit="10" d="M56.392,50c0,0,7.252-4.381,8.828,4.132L56.392,50z"/>
<path fill="#48BEBC" stroke="#48BEBC" stroke-miterlimit="10" d="M74.364,60.498c0,0,7.252-4.381,8.828,4.132L74.364,60.498z"/>
<path fill="#48BEBC" stroke="#48BEBC" stroke-miterlimit="10" d="M47.339,21.629c0,0-6.554,5.369-9.327-2.833L47.339,21.629z"/>
<path fill="#48BEBC" stroke="#48BEBC" stroke-miterlimit="10" d="M25.756,24.165c0,0,1.271,8.377-7.197,6.574L25.756,24.165z"/>
</svg>
