<?xml version="1.0" encoding="utf-8"?>
<!-- Generator: Adobe Illustrator 17.0.0, SVG Export Plug-In . SVG Version: 6.00 Build 0)  -->
<!DOCTYPE svg PUBLIC "-//W3C//DTD SVG 1.1//EN" "http://www.w3.org/Graphics/SVG/1.1/DTD/svg11.dtd">
<svg version="1.1" id="Layer_1" xmlns="http://www.w3.org/2000/svg" xmlns:xlink="http://www.w3.org/1999/xlink" x="0px" y="0px"
	 width="100px" height="100px" viewBox="0 0 100 100" enable-background="new 0 0 100 100" xml:space="preserve">
<g transform="translate(0.000000,100.000000) scale(0.100000,-0.100000)">
	<path fill="#FFFFFF" d="M433,991c-49-13-120-58-146-94c-86-114-87-228-4-424c38-91,142-269,188-323l29-35l26,30
		c43,51,161,257,193,337c70,174,77,273,25,368c-47,87-124,137-221,145C491,997,451,995,433,991z M607,937c39-21,89-70,109-110
		c55-106,8-292-135-530c-37-61-72-112-78-114c-15-5-107,141-164,261c-91,190-102,323-36,414c31,42,70,72,116,89
		C464,964,565,958,607,937z"/>
	<path fill="#FFFFFF" d="M441,823c-124-65-93-242,45-259c73-9,141,46,150,122C649,790,533,872,441,823z M549,786c47-25,63-83,37-135
		c-35-66-137-66-172,0C367,742,458,833,549,786z"/>
	<path fill="#FFFFFF" d="M235,303c-86-18-168-56-195-90C-41,109,140,15,445,3c417-17,689,144,442,261c-69,32-187,57-205,43
		c-20-16,8-33,66-42c93-14,192-66,192-100c0-20-46-55-99-75C630,9,188,34,84,131c-13,13-24,28-24,34c0,34,99,86,192,100
		c58,9,86,26,66,42C309,314,285,313,235,303z"/>
</g>
</svg>
