<?xml version="1.0" encoding="utf-8"?>
<!-- Generator: Adobe Illustrator 17.0.0, SVG Export Plug-In . SVG Version: 6.00 Build 0)  -->
<!DOCTYPE svg PUBLIC "-//W3C//DTD SVG 1.1//EN" "http://www.w3.org/Graphics/SVG/1.1/DTD/svg11.dtd">
<svg version="1.1" id="Layer_1" xmlns="http://www.w3.org/2000/svg" xmlns:xlink="http://www.w3.org/1999/xlink" x="0px" y="0px"
	 width="100px" height="100px" viewBox="0 0 100 100" enable-background="new 0 0 100 100" xml:space="preserve">
<g transform="translate(0.000000,100.000000) scale(0.100000,-0.100000)">
	<path fill="#131921" d="M445,975l-25-24V730V509l25-24c32-33,78-33,110,0l25,24v221v221l-25,24c-15,16-36,25-55,25S460,991,445,975
		z"/>
	<path fill="#131921" d="M144,837C42,728,5,624,12,466c3-80,8-101,41-169c51-109,127-186,236-240l84-42h127h127l84,42
		c109,54,185,131,236,240c33,68,38,89,41,169c7,160-31,265-133,372c-67,69-102,79-129,40c-25-35-19-54,34-109c150-155,152-386,4-533
		C548,20,179,141,130,444c-19,115,22,234,110,325c54,56,62,87,32,114C237,915,206,904,144,837z"/>
</g>
</svg>
