<?xml version="1.0" encoding="utf-8"?>
<!-- Generator: Adobe Illustrator 17.0.0, SVG Export Plug-In . SVG Version: 6.00 Build 0)  -->
<!DOCTYPE svg PUBLIC "-//W3C//DTD SVG 1.1//EN" "http://www.w3.org/Graphics/SVG/1.1/DTD/svg11.dtd">
<svg version="1.1" id="Layer_1" xmlns="http://www.w3.org/2000/svg" xmlns:xlink="http://www.w3.org/1999/xlink" x="0px" y="0px"
	 width="100px" height="100px" viewBox="0 0 100 100" enable-background="new 0 0 100 100" xml:space="preserve">
<g transform="translate(0.000000,100.000000) scale(0.100000,-0.100000)">
	<path fill="#48BEBC" d="M899,990c-68-20-160-81-244-161l-90-86l-240,33L85,809l-45-44c-39-39-43-47-30-58c8-8,94-45,192-83l176-68
		l-90-98l-90-98h-52c-44,0-58-5-98-37c-26-21-46-45-45-53c1-10,35-23,102-40l100-25l25-99C244,50,261,5,268,2c8-2,31,13,53,34
		c37,36,39,41,39,99v60l99,92l99,92l67-177c37-97,74-184,81-192c12-13,20-9,59,30l45,45l-33,242l-33,242l69,68
		c81,79,148,177,172,251c16,48,16,54,1,77c-9,14-20,25-25,25s-15,2-23,4C931,996,913,995,899,990z M950,924c0-49-63-147-157-245
		l-93-96l34-244c32-237,33-245,15-263c-10-11-20-18-22-15c-2,2-35,83-72,179s-74,182-82,190c-11,13-29-1-133-105L320,205v-60
		c0-48-4-63-19-72c-18-11-21-6-41,77l-22,88l-46,12C61,282,66,279,86,301c13,14,30,19,68,19h51l119,119c65,65,116,124,112,129
		c-3,6-90,43-191,83c-102,40-185,75-185,79s8,14,18,22c15,13,43,11,261-18l244-34l97,94c99,97,190,155,243,156
		C946,950,950,946,950,924z"/>
</g>
</svg>
