<?xml version="1.0" encoding="utf-8"?>
<!-- Generator: Adobe Illustrator 17.0.0, SVG Export Plug-In . SVG Version: 6.00 Build 0)  -->
<!DOCTYPE svg PUBLIC "-//W3C//DTD SVG 1.1//EN" "http://www.w3.org/Graphics/SVG/1.1/DTD/svg11.dtd">
<svg version="1.1" id="Layer_1" xmlns="http://www.w3.org/2000/svg" xmlns:xlink="http://www.w3.org/1999/xlink" x="0px" y="0px"
	 width="100px" height="100px" viewBox="0 0 100 100" enable-background="new 0 0 100 100" xml:space="preserve">
<g transform="translate(0.000000,100.000000) scale(0.100000,-0.100000)">
	<path fill="#131921" d="M410,926c-12-73-13-74-51-89l-38-15l-59,43l-59,43l-52-52c-28-28-51-56-51-61c0-6,18-34,39-63
		c39-54,39-54,24-92s-17-39-89-51L0,577v-77v-77l73-13c70-12,73-13,88-49l16-38l-42-60l-43-61l52-51c28-28,55-51,60-51
		c4,0,32,18,62,39c55,39,55,39,93,24s39-16,51-89l11-74h78h78l12,74c12,72,13,74,51,89s38,15,92-24c29-21,58-39,63-39
		c6,0,34,24,62,53l52,52l-44,58l-43,58l15,39c15,38,17,39,89,51l74,12v77v77l-74,12c-72,12-74,13-89,51s-15,38,24,92
		c21,29,39,57,39,63c0,5-23,33-51,61l-52,52l-59-43l-59-43l-39,15c-38,15-39,17-51,89l-12,74h-78h-78L410,926z M544,943
		c3-10,8-40,12-66c6-47,8-49,61-73c31-13,60-24,65-24s30,16,55,35s51,35,56,35c14,0,57-41,57-53c0-5-16-32-35-58c-19-27-35-53-35-58
		s11-33,24-62l23-54l64-10l64-10v-45v-45l-64-10l-64-10l-23-54c-13-29-24-57-24-62s16-31,35-58c19-26,35-52,35-57c0-11-41-54-52-54
		c-5,0-33,16-63,36l-55,37l-57-25c-55-24-58-27-66-69c-17-95-14-90-60-87l-42,3l-10,64l-10,65l-60,23l-59,23l-53-35
		c-29-19-56-35-60-35c-11,0-53,42-53,54c0,5,17,34,37,63l36,53l-23,53c-14,28-26,54-27,56c-2,3-31,10-66,16l-62,11v44v45l64,10
		l64,10l23,54c13,29,24,57,24,62s-16,31-35,58c-19,26-35,52-35,57c0,11,42,54,54,54c5,0,33-16,62-36l53-37l58,25l58,25l8,54
		c12,78,12,79,56,79C528,960,540,955,544,943z"/>
	<path fill="#131921" d="M420,658c-132-67-132-249,0-315c56-29,104-29,160-1c132,67,132,249,0,316c-24,12-60,22-80,22
		S444,670,420,658z M571,617c90-60,88-181-4-237c-63-39-146-15-187,52C307,551,455,695,571,617z"/>
</g>
</svg>
