<?xml version="1.0" encoding="utf-8"?>
<!-- Generator: Adobe Illustrator 17.0.0, SVG Export Plug-In . SVG Version: 6.00 Build 0)  -->
<!DOCTYPE svg PUBLIC "-//W3C//DTD SVG 1.1//EN" "http://www.w3.org/Graphics/SVG/1.1/DTD/svg11.dtd">
<svg version="1.1" id="Layer_1" xmlns="http://www.w3.org/2000/svg" xmlns:xlink="http://www.w3.org/1999/xlink" x="0px" y="0px"
	 width="100px" height="100px" viewBox="0 0 100 100" enable-background="new 0 0 100 100" xml:space="preserve">
<g>
	<path fill="none" d="M57.5,44.5c-5.7-3.9-6.5-5.4-4-7.5c2-1.6,1.4-2.3-4.9-5.9c-2.9-1.7-5.8-3.1-6.4-3.1c-1.5,0-4.2,5.3-4.2,8
		c0,4,2.9,7.7,9.5,12c6.5,4.2,8.5,6.4,8.5,9.4c0,0.8-2.8,5-6.1,9.2l-6.2,7.7l2.3,1.9c2.8,2.3,3,2.2,12.7-9.5
		C68.5,54.9,68.4,52,57.5,44.5z"/>
	<path fill="none" d="M87.2,18c2.9,0,6.8-4.1,6.8-7c0-1-0.9-2.9-2.1-4.4c-2.6-3.3-6.8-3.4-9.7-0.3C81,7.6,80,9.8,80,11.1
		C80,14.3,83.9,18,87.2,18z"/>
	<path fill="none" d="M52.4,28.8c6.6,3.9,7,4,9.3,2.5c3.1-2.1,4.1-1,4.5,5.2l0.3,5l8.5,4.2c4.7,2.4,8.9,4.3,9.4,4.3
		c1.8,0-1.8-3.1-7-6.1c-8.5-4.8-8.5-4.7-5.8-12.6c3-8.7,3-11.4,0-14.2c-3.7-3.5-9.9-3.8-16.1-0.7C50.2,19,44.2,23.5,45,24.3
		C45.3,24.5,48.6,26.5,52.4,28.8z"/>
	<path fill="#48BEBC" d="M91.4,93.9c-4.4,3.5-7.8,2.7-22.9-5.5c-7.7-4.1-14.3-7.8-14.7-8.2c-0.4-0.4,2.9-4.9,7.2-10.1
		c9.8-11.6,11.2-16.7,6.1-22.5c-0.9-1-1.1-1.7-0.6-1.5c0.6,0.3,4.2,2,8,3.8c8.8,4.1,12.6,4.8,14.4,2.7c2.3-2.7-0.2-6.2-8-11.2
		c-5.4-3.5-6.9-5-6.4-6.2c2.2-5.4,3.6-12,3.3-14.9L77.4,17l2.4,2.3c3.5,3.3,11.2,3.1,14.7-0.4c3-2.9,4.1-8.2,2.6-12.1
		C95.9,3.5,90.6,0,87,0c-1.4,0-4,0.9-5.8,2c-3.8,2.4-5.6,6.2-4.8,10.8l0.5,3.3l-3-2.5c-7.1-6-18.9-4-28.9,5l-3.9,3.5l-9.4-5.5
		C26.5,13.5,21.5,11,20.6,11c-3.4,0-1.4,3,4.2,6.1c3.1,1.8,7.4,4.3,9.5,5.6L38,25l-2,4c-4,7.8-1.8,14.3,7,20.7
		c2.5,1.8,5.6,4.1,7,5.1l2.4,2l-4.2,5.3c-2.3,3-5.2,6.6-6.4,8.1l-2.3,2.7l-17-9.4C13.2,58.3,4.9,54,4.3,54C3.6,54,3,54.8,3,55.7
		c0.1,2.2,74.8,43.1,80.3,44c4.4,0.7,10.4-1.3,11.8-3.9C96.9,92.5,94.7,91.3,91.4,93.9z M82.2,6.3c2.9-3.1,7.1-3,9.7,0.3
		C93.1,8.1,94,10,94,11c0,2.9-3.9,7-6.8,7c-3.3,0-7.2-3.7-7.2-6.9C80,9.8,81,7.6,82.2,6.3z M55.5,16.4c6.2-3.1,12.4-2.8,16.1,0.7
		c3,2.8,3,5.5,0,14.2c-2.7,7.9-2.7,7.8,5.8,12.6c5.2,3,8.8,6.1,7,6.1c-0.5,0-4.7-1.9-9.4-4.3l-8.5-4.2l-0.3-5
		c-0.4-6.2-1.4-7.3-4.5-5.2c-2.3,1.5-2.7,1.4-9.3-2.5c-3.8-2.3-7.1-4.3-7.4-4.5C44.2,23.5,50.2,19,55.5,16.4z M62.963,41.579v1.702
		l-5.484-4.917L62.963,41.579z M46,76.2l-2.3-1.9l6.2-7.7c3.3-4.2,6.1-8.4,6.1-9.2c0-3-2-5.2-8.5-9.4c-6.6-4.3-9.5-8-9.5-12
		c0-2.7,2.7-8,4.2-8c0.6,0,3.5,1.4,6.4,3.1c6.3,3.6,6.9,4.3,4.9,5.9c-2.5,2.1-1.7,3.6,4,7.5c10.9,7.5,11,10.4,1.2,22.2
		C49,78.4,48.8,78.5,46,76.2z"/>
</g>
</svg>
