<?xml version="1.0" encoding="utf-8"?>
<!-- Generator: Adobe Illustrator 17.0.0, SVG Export Plug-In . SVG Version: 6.00 Build 0)  -->
<!DOCTYPE svg PUBLIC "-//W3C//DTD SVG 1.1//EN" "http://www.w3.org/Graphics/SVG/1.1/DTD/svg11.dtd">
<svg version="1.1" id="Layer_1" xmlns="http://www.w3.org/2000/svg" xmlns:xlink="http://www.w3.org/1999/xlink" x="0px" y="0px"
	 width="100px" height="100px" viewBox="0 0 100 100" enable-background="new 0 0 100 100" xml:space="preserve">
<g>
	<path fill="none" d="M74.064,31.427c0.164-0.164-0.41-1.805-1.231-3.775c-1.835-4.097-5.054-6.289-9.098-6.544
		c0.341,2.839,1.515,5.423,3.276,7.5c1.19,0.366,2.372,0.833,3.525,1.424C72.341,30.934,73.9,31.591,74.064,31.427z"/>
	<path fill="none" d="M47.64,42.259c-2.708,0-3.283,1.231-3.775,8.288c-1.067,13.54-5.991,27.409-12.474,34.959
		c-1.559,1.887-5.17,4.924-7.878,6.729c-5.991,4.021-5.334,4.596,4.431,3.939c10.914-0.739,12.31-1.477,14.771-6.975
		c3.283-7.304,6.237-27.409,6.319-42.673C49.035,42.998,48.789,42.259,47.64,42.259z"/>
	<path fill="none" d="M77.839,30.77c0.289,0.997,0.543,1.976,0.746,2.865c7.549-0.363,13.584-6.601,13.584-14.239
		c0-7.871-6.403-14.273-14.273-14.273c-7.338,0-13.396,5.568-14.182,12.701C70.308,18.145,75.327,22.594,77.839,30.77z"/>
	<path fill="none" d="M50.84,25.436l-3.365,2.216l-2.872-2.216c-1.559-1.231-4.596-2.708-6.729-3.365
		c-8.863-2.626-16.823,0.164-20.516,7.222c-1.641,3.118-1.477,3.447,1.149,1.641c5.088-3.529,11.899-4.431,17.151-2.216
		c7.714,3.283,7.222,6.155-0.985,6.155c-4.267,0-6.155,0.492-10.422,2.626c-4.513,2.38-5.498,3.283-7.468,7.222
		c-2.052,4.021-2.298,5.17-1.969,9.93c0.41,4.678,2.79,12.802,2.954,10.012c0.082-0.574,0.821-3.036,1.805-5.58
		c4.431-11.735,19.859-21.419,31.758-19.777c11.161,1.641,18.875,9.191,21.583,21.254l1.067,4.842l1.805-3.118
		c2.462-4.021,3.201-9.191,1.97-12.966c-1.231-3.857-7.222-9.027-12.884-11.161c-2.462-0.903-7.222-1.887-10.586-2.216
		c-6.811-0.574-7.468-1.395-3.611-4.596c3.237-2.767,7.604-3.966,12.127-3.569c-1.098-1.97-1.824-4.174-2.077-6.519
		C57.702,21.721,54.352,23.095,50.84,25.436z"/>
	<path fill="#48BEBC" d="M63.735,21.108c4.044,0.255,7.263,2.447,9.098,6.544c0.821,1.97,1.395,3.611,1.231,3.775
		s-1.723-0.492-3.529-1.395c-1.153-0.59-2.334-1.058-3.525-1.424c2.62,3.091,6.525,5.062,10.885,5.062
		c0.233,0,0.459-0.024,0.689-0.035c-0.203-0.888-0.457-1.868-0.746-2.865c-2.512-8.177-7.531-12.626-14.125-12.946
		c-0.057,0.517-0.091,1.041-0.091,1.573C63.622,19.977,63.667,20.546,63.735,21.108z"/>
	<path fill="#48BEBC" d="M74.755,36.37c0.157,0.157,0.326,0.313,0.458,0.473c1.231,1.477,3.036,1.723,3.775,0.492
		c0.077-0.115,0.102-0.37,0.088-0.725c-0.392,0.027-0.782,0.06-1.18,0.06C76.822,36.67,75.775,36.558,74.755,36.37z"/>
	<path fill="#48BEBC" d="M62.803,27.776c-4.523-0.397-8.89,0.802-12.127,3.569c-3.857,3.2-3.2,4.021,3.611,4.596
		c3.365,0.328,8.124,1.313,10.586,2.216c5.662,2.134,11.653,7.304,12.884,11.161c1.231,3.775,0.492,8.945-1.97,12.966l-1.805,3.118
		l-1.067-4.842c-2.708-12.063-10.422-19.613-21.583-21.254c-11.899-1.641-27.327,8.042-31.758,19.777
		c-0.985,2.544-1.723,5.006-1.805,5.58c-0.164,2.79-2.544-5.334-2.954-10.012c-0.328-4.76-0.082-5.909,1.969-9.93
		c1.97-3.939,2.954-4.842,7.468-7.222c4.267-2.134,6.155-2.626,10.422-2.626c8.206,0,8.699-2.872,0.985-6.155
		c-5.252-2.216-12.063-1.313-17.151,2.216c-2.626,1.805-2.79,1.477-1.149-1.641c3.693-7.057,11.653-9.848,20.516-7.222
		c2.134,0.656,5.17,2.134,6.729,3.365l2.872,2.216l3.365-2.216c3.512-2.342,6.862-3.715,9.886-4.179
		c-0.066-0.612-0.104-1.231-0.104-1.86c0-0.488,0.033-0.967,0.073-1.445c-2.731,0.352-5.678,1.333-8.788,2.971l-4.431,2.38
		l-4.513-2.462c-5.416-2.954-13.212-3.857-17.972-2.052c-7.386,2.708-12.884,10.34-13.13,18.218
		c-0.164,5.006,1.231,5.498,3.857,1.313c2.79-4.431,6.811-6.729,12.556-7.222c5.006-0.328,4.349,0.082-2.954,2.134
		c-2.462,0.656-4.924,2.298-7.878,5.17c-4.513,4.596-6.155,8.699-6.155,15.51c0,6.893,4.596,20.023,6.729,19.367
		c0.574-0.246,1.641-3.036,2.462-6.319c1.723-7.222,4.924-13.294,8.617-16.577C31.637,48.25,39.187,43.9,40.5,43.9
		c0.739,0-0.328,11.571-1.723,18.464c-3.118,15.018-13.048,27.409-24.701,30.774c-3.118,0.903-3.857,0.821-8.206-1.149
		c-3.365-1.559-4.924-1.887-5.58-1.313c-2.052,2.134,7.139,6.483,17.233,8.288c7.55,1.313,15.592,0.492,25.357-2.544
		c14.279-4.349,21.419-4.185,32.661,0.985c3.036,1.395,5.744,2.298,5.991,2.052c2.954-2.954-12.966-9.601-22.896-9.601
		c-1.887,0-5.58,0.492-8.124,1.149c-2.626,0.574-4.76,0.985-4.76,0.739c0-0.164,0.739-2.626,1.641-5.416
		c2.298-7.304,4.021-18.957,4.596-32.005c0.328-6.155,0.903-11.243,1.313-11.243c1.887,0,6.565,2.626,9.519,5.252
		c4.349,3.939,6.729,9.766,7.386,18.054c0.656,8.124,1.641,8.453,5.991,2.134c5.744-8.288,7.057-15.428,3.939-21.829
		c-3.2-6.729-12.063-12.31-20.926-13.212c-4.267-0.492-4.513-0.574-3.118-1.641c1.678-1.291,5.905-0.994,10.045,0.177
		C64.819,30.784,63.687,29.361,62.803,27.776z M42.716,89.199c-2.462,5.498-3.857,6.237-14.771,6.975
		c-9.766,0.657-10.422,0.082-4.431-3.939c2.708-1.805,6.319-4.842,7.878-6.729c6.483-7.55,11.407-21.418,12.474-34.959
		c0.492-7.057,1.067-8.288,3.775-8.288c1.149,0,1.395,0.739,1.395,4.267C48.953,61.79,45.998,81.896,42.716,89.199z"/>
	<path fill="#4ABEBC" d="M95.169,19.396c0-9.524-7.749-17.273-17.273-17.273c-9.037,0-16.462,6.979-17.2,15.829
		c1.039-0.134,2.045-0.175,3.018-0.128C64.5,10.691,70.557,5.123,77.896,5.123c7.87,0,14.273,6.403,14.273,14.273
		c0,7.638-6.035,13.875-13.584,14.239c0.283,1.24,0.463,2.297,0.491,2.975C88.049,35.999,95.169,28.523,95.169,19.396z"/>
	<path fill="#4ABEBC" d="M60.726,21.257c1.045-0.16,2.05-0.209,3.009-0.149c-0.068-0.562-0.113-1.131-0.113-1.712
		c0-0.532,0.034-1.056,0.091-1.573c-0.973-0.047-1.98-0.006-3.018,0.128c-0.04,0.478-0.073,0.957-0.073,1.445
		C60.622,20.025,60.66,20.645,60.726,21.257z"/>
	<path fill="#4ABEBC" d="M77.896,33.67c-4.36,0-8.265-1.97-10.885-5.062c-1.399-0.43-2.81-0.709-4.208-0.832
		c0.884,1.585,2.016,3.009,3.334,4.238c3.452,0.976,6.821,2.559,8.619,4.356c1.02,0.188,2.067,0.3,3.14,0.3
		c0.398,0,0.788-0.033,1.18-0.06c-0.028-0.678-0.208-1.735-0.491-2.975C78.355,33.646,78.128,33.67,77.896,33.67z"/>
</g>
</svg>
