<?xml version="1.0" encoding="utf-8"?>
<!-- Generator: Adobe Illustrator 17.0.0, SVG Export Plug-In . SVG Version: 6.00 Build 0)  -->
<!DOCTYPE svg PUBLIC "-//W3C//DTD SVG 1.1//EN" "http://www.w3.org/Graphics/SVG/1.1/DTD/svg11.dtd">
<svg version="1.1" id="Layer_1" xmlns="http://www.w3.org/2000/svg" xmlns:xlink="http://www.w3.org/1999/xlink" x="0px" y="0px"
	 width="100px" height="100px" viewBox="0 0 100 100" enable-background="new 0 0 100 100" xml:space="preserve">
<g transform="translate(0.000000,100.000000) scale(0.100000,-0.100000)">
	<path fill="#FFFFFF" d="M192,988c-7-7-12-25-12-40v-28h-78c-47,0-83-5-90-12C-5,891-5,29,12,12s959-17,976,0s17,879,0,896
		c-7,7-43,12-90,12h-78v28c0,37-17,52-60,52s-60-15-60-52v-28H500H300v28c0,15-5,33-12,40C272,1004,208,1004,192,988z M180,852
		c0-37,17-52,60-52s60,15,60,52v28h200h200v-28c0-37,17-52,60-52s60,15,60,52c0,28,0,28,70,28h70v-80v-80H500H40v80v80h70
		C180,880,180,880,180,852z M960,360V40H500H40v320v320h460h460V360z"/>
	<path fill="#FFFFFF" d="M565,409l-86-131l-55,51c-59,54-68,58-80,39c-10-16,136-152,149-139c5,5,51,74,102,153
		c86,133,96,157,62,158C653,540,611,481,565,409z"/>
</g>
</svg>
