<?xml version="1.0" standalone="no"?>
<!DOCTYPE svg PUBLIC "-//W3C//DTD SVG 20010904//EN"
 "http://www.w3.org/TR/2001/REC-SVG-20010904/DTD/svg10.dtd">
<svg version="1.0" xmlns="http://www.w3.org/2000/svg"
 width="100.000000pt" height="100.000000pt" viewBox="0 0 100.000000 100.000000"
 preserveAspectRatio="xMidYMid meet">
<metadata>
Created by potrace 1.11, written by Peter Selinger 2001-2013
</metadata>
<g transform="translate(0.000000,100.000000) scale(0.100000,-0.100000)"
fill="#000000" stroke="none">
<path d="M78 769 c-7 -21 -22 -36 -44 -45 l-34 -14 0 -210 0 -210 34 -14 c22
-9 37 -24 44 -45 l11 -31 411 0 411 0 11 31 c7 21 22 36 44 45 l34 14 0 210 0
210 -34 14 c-22 9 -37 24 -44 45 l-11 31 -411 0 -411 0 -11 -31z m642 -39 c0
-23 4 -30 20 -30 16 0 20 7 20 30 l0 30 65 0 c43 0 65 -4 65 -12 0 -16 41 -58
57 -58 10 0 13 -39 13 -190 0 -140 -3 -190 -12 -190 -16 0 -58 -41 -58 -57 0
-9 -18 -13 -65 -13 l-65 0 0 30 c0 23 -4 30 -20 30 -16 0 -20 -7 -20 -30 l0
-30 -305 0 c-228 0 -305 3 -305 12 0 16 -41 58 -57 58 -10 0 -13 39 -13 190 0
140 3 190 12 190 16 0 58 41 58 57 0 10 58 13 305 13 l305 0 0 -30z"/>
</g>
</svg>
