<?xml version="1.0" encoding="utf-8"?>
<!-- Generator: Adobe Illustrator 17.0.0, SVG Export Plug-In . SVG Version: 6.00 Build 0)  -->
<!DOCTYPE svg PUBLIC "-//W3C//DTD SVG 1.1//EN" "http://www.w3.org/Graphics/SVG/1.1/DTD/svg11.dtd">
<svg version="1.1" id="Layer_1" xmlns="http://www.w3.org/2000/svg" xmlns:xlink="http://www.w3.org/1999/xlink" x="0px" y="0px"
	 width="100px" height="100px" viewBox="0 0 100 100" enable-background="new 0 0 100 100" xml:space="preserve">
<g>
	<path fill="none" d="M68.807,17.661c0.916-4.238-2.284-5.17-2.284-5.17s-8.361,0-12.599,0s-3.207,5.154-3.207,5.154L68.807,17.661z
		"/>
	<path fill="none" d="M26.5,65.5H60h33.5V44V22.5l-33.3-0.3c-26.4-0.2-33.4,0-33.7,1.1C26.2,24,26.1,33.8,26.2,45L26.5,65.5z"/>
	<path fill="#48BEBC" d="M24,68c1.9,1.9,3.3,2,36,2s34.1-0.1,36-2s2-3.3,2-24c0-27.5,0.9-26-15-26c-10.3,0-11-0.1-11-2
		c0-4.3-3.4-6-11.8-6c-5.4,0-8.4,0.5-10,1.6c-1.2,0.8-2.2,2.6-2.2,4C48,18,48,18,37,18c-15.9,0-15-1.5-15,26
		C22,64.7,22.1,66.1,24,68z M53.925,12.491c4.238,0,12.599,0,12.599,0s3.2,0.933,2.284,5.17l-18.089-0.016
		C50.718,17.644,49.687,12.491,53.925,12.491z M26.5,23.3c0.3-1.1,7.3-1.3,33.7-1.1l33.3,0.3V44v21.5H60H26.5L26.2,45
		C26.1,33.8,26.2,24,26.5,23.3z"/>
	<path fill="#48BEBC" d="M95,80c3.1-0.3,4.5-1,4.5-2c0-1.3-5.3-1.6-39.7-2c-36.4-0.5-39.9-0.6-41.5-2.3c-1.6-1.6-1.9-4.5-2.3-26.5
		c-0.3-13.6-0.9-25.5-1.4-26.5C12.8,17,2.2,14.2,0.5,17c-1.1,1.8,0.5,3,4.1,3c2.1,0,4.2,0.8,5.4,2c1.9,1.9,2,3.3,2,25.1
		C12,73.9,12.5,76,19.4,79c3.8,1.6,3.9,1.8,1.8,2.4C18.8,82.2,16,86.7,16,90c0,5.1,4.9,10,10,10c9.9,0,13.6-13.8,4.9-18.6
		c-2-1.1,1.9-1.3,26.1-1.3s28.1,0.2,26.1,1.3c-8.7,4.8-5,18.6,4.9,18.6c5.1,0,10-4.9,10-10c0-3.3-2.7-7.8-5.2-8.7
		C90.9,80.7,91.2,80.5,95,80z M32.462,90.059c0,3.628-2.941,6.568-6.568,6.568s-6.568-2.941-6.568-6.568s2.941-6.568,6.568-6.568
		S32.462,86.431,32.462,90.059z M94.679,90.059c0,3.628-2.941,6.568-6.568,6.568s-6.568-2.941-6.568-6.568s2.941-6.568,6.568-6.568
		S94.679,86.431,94.679,90.059z"/>
</g>
</svg>
